<svg width="64" height="64" viewBox="0 0 64 64" fill="none" xmlns="http://www.w3.org/2000/svg">
<path d="M44 24C44 16.374 39.626 12 32 12C24.374 12 20 16.374 20 24C12.374 24 8 28.374 8 36C8 43.626 12.374 48 20 48V44C14.542 44 12 41.458 12 36C12 30.542 14.542 28 20 28H24V24C24 18.542 26.542 16 32 16C37.458 16 40 18.542 40 24V28H44C49.458 28 52 30.542 52 36C52 41.458 49.458 44 44 44V48C51.626 48 56 43.626 56 36C56 28.374 51.626 24 44 24Z" fill="#1E1919"/>
<path d="M31 44.171L25.414 38.586L22.586 41.414L31 49.829L43.414 37.414L40.586 34.586L31 44.171Z" fill="#1E1919"/>
</svg>
