<svg width="216" height="216" viewBox="0 0 216 216" fill="none" xmlns="http://www.w3.org/2000/svg">
<path d="M108 216C167.647 216 216 167.647 216 108C216 48.3532 167.647 0 108 0C48.3532 0 0 48.3532 0 108C0 167.647 48.3532 216 108 216Z" fill="#58595B"/>
<path d="M67.0526 126.375C62.7017 131.451 58.7134 133.989 51.8168 133.989C36.7277 133.989 31.5051 121.438 31.5051 108.023C31.5051 94.608 36.6583 82.0569 51.7397 82.0569C58.5591 82.0569 62.694 84.5949 66.9754 89.5243L64.584 91.6303C61.0277 87.642 57.6951 85.32 51.7474 85.32C38.1086 85.32 34.8454 97.4315 34.8454 108.023C34.8454 118.615 38.1086 130.726 51.7474 130.726C57.6951 130.726 61.1048 128.335 64.6611 124.269L67.0526 126.375Z" fill="white"/>
<path d="M88.2283 133.99C77.058 133.99 73.5017 126.152 73.5017 116C73.5017 105.848 77.058 97.8635 88.2283 97.8635C99.3986 97.8635 102.955 105.771 102.955 116C102.955 126.229 99.3291 133.99 88.2283 133.99ZM88.2283 100.818C78.3617 100.818 76.6569 108.286 76.6569 115.977C76.6569 123.521 78.4003 130.989 88.2283 130.989C98.0563 130.989 99.9077 123.521 99.9077 115.977C99.8383 108.316 98.0254 100.841 88.2283 100.841V100.818Z" fill="white"/>
<path d="M114.418 133.774C114.015 133.794 113.612 133.732 113.233 133.592C112.854 133.452 112.508 133.236 112.215 132.958C111.923 132.68 111.69 132.345 111.53 131.974C111.371 131.603 111.289 131.204 111.289 130.8C111.289 130.396 111.371 129.996 111.53 129.625C111.69 129.254 111.923 128.919 112.215 128.641C112.508 128.363 112.854 128.147 113.233 128.007C113.612 127.867 114.015 127.805 114.418 127.826C114.822 127.805 115.225 127.867 115.603 128.007C115.982 128.147 116.328 128.363 116.621 128.641C116.914 128.919 117.147 129.254 117.306 129.625C117.465 129.996 117.548 130.396 117.548 130.8C117.548 131.204 117.465 131.603 117.306 131.974C117.147 132.345 116.914 132.68 116.621 132.958C116.328 133.236 115.982 133.452 115.603 133.592C115.225 133.732 114.822 133.794 114.418 133.774V133.774Z" fill="white"/>
<path d="M145.461 133.99C135.432 133.99 128.273 130.51 126.175 121.369L129.369 120.79C131.251 128.698 138.433 130.942 145.468 130.942C152.072 130.942 159.832 127.386 159.832 119.479C159.832 103.086 127.918 112.536 127.918 94.7469C127.918 86.0452 135.748 82.1958 143.879 82.1958C151.709 82.1958 157.518 84.8804 160.997 91.6998L158.143 93.0035C155.057 87.2718 150.236 85.3895 143.856 85.3895C138.34 85.3895 131.158 87.4955 131.158 94.7469C131.158 109.111 163.072 100.186 163.072 119.479C163.088 128.914 154.525 133.99 145.461 133.99Z" fill="white"/>
<path d="M173.895 88.0739C173.145 88.0739 172.424 87.7757 171.894 87.2447C171.363 86.7138 171.064 85.9937 171.064 85.2428C171.059 84.8696 171.129 84.4991 171.269 84.1532C171.41 83.8074 171.618 83.4932 171.882 83.2293C172.146 82.9654 172.46 82.757 172.806 82.6166C173.152 82.4761 173.522 82.4065 173.895 82.4116C174.646 82.4137 175.365 82.7126 175.895 83.2431C176.426 83.7736 176.725 84.4925 176.727 85.2428C176.713 85.9893 176.41 86.7014 175.882 87.2294C175.354 87.7574 174.642 88.0601 173.895 88.0739ZM175.438 133.341H172.353V98.5268H175.438V133.341Z" fill="white"/>
</svg>
