<svg width="64" height="64" viewBox="0 0 64 64" fill="none" xmlns="http://www.w3.org/2000/svg">
<path d="M53.644 15.851L50.129 12.336C48.6287 10.8359 46.5941 9.99316 44.4725 9.99316C42.3509 9.99316 40.3163 10.8359 38.816 12.336L14.185 36.967L15.012 39.449C15.3683 40.5056 15.4214 41.6409 15.1653 42.7261C14.9092 43.8114 14.3541 44.8031 13.563 45.589L7.771 51.381L18.013 54.8L20.391 52.422C21.177 51.6312 22.1688 51.0763 23.254 50.8202C24.3391 50.5641 25.4744 50.617 26.531 50.973L29.013 51.8L53.645 27.164C55.1427 25.6624 55.9838 23.6281 55.9836 21.5072C55.9834 19.3864 55.142 17.3523 53.644 15.851ZM27.933 47.219L27.795 47.173C25.368 46.3635 22.7222 46.5218 20.409 47.615L18.365 45.571C19.4585 43.2575 19.6165 40.6111 18.806 38.184L18.76 38.047L20.472 36.335L29.644 45.507L27.933 47.219ZM32.473 42.679L23.3 33.507L37.973 18.835L47.145 28.007L32.473 42.679ZM50.816 24.336L49.972 25.18L40.8 16.007L41.643 15.164C42.4054 14.4374 43.4183 14.0321 44.4715 14.0321C45.5247 14.0321 46.5375 14.4374 47.3 15.164L50.815 18.679C51.1865 19.0503 51.4813 19.4912 51.6824 19.9765C51.8835 20.4618 51.987 20.9819 51.9871 21.5072C51.9872 22.0326 51.8839 22.5527 51.6829 23.0381C51.482 23.5234 51.1874 23.9645 50.816 24.336Z" fill="#1E1919"/>
</svg>
