<svg width="64" height="64" viewBox="0 0 64 64" fill="none" xmlns="http://www.w3.org/2000/svg">
<path fill-rule="evenodd" clip-rule="evenodd" d="M15.3888 39.2971C15.3888 40.5237 15.0269 41.7229 14.3488 42.7428C13.6707 43.7628 12.7068 44.5577 11.5792 45.0271C10.4516 45.4966 9.21074 45.6194 8.01365 45.3801C6.81655 45.1408 5.71695 44.5501 4.85389 43.6827C3.99083 42.8153 3.40308 41.7102 3.16497 40.507C2.92685 39.3039 3.04906 38.0569 3.51614 36.9236C3.98323 35.7903 4.77421 34.8216 5.78905 34.1401C6.8039 33.4586 7.99704 33.0949 9.21759 33.0949H15.3888V39.2971ZM18.4697 39.2971C18.4697 37.6521 19.1199 36.0746 20.2773 34.9115C21.4346 33.7483 23.0042 33.0949 24.6409 33.0949C26.2777 33.0949 27.8473 33.7483 29.0046 34.9115C30.162 36.0746 30.8122 37.6521 30.8122 39.2971V54.7979C30.8122 56.4428 30.162 58.0203 29.0046 59.1835C27.8473 60.3466 26.2777 61 24.6409 61C23.0042 61 21.4346 60.3466 20.2773 59.1835C19.1199 58.0203 18.4697 56.4428 18.4697 54.7979V39.2971Z" fill="#E01E5A"/>
<path fill-rule="evenodd" clip-rule="evenodd" d="M24.641 14.4044C23.4204 14.4044 22.2273 14.0406 21.2124 13.3591C20.1976 12.6776 19.4066 11.709 18.9395 10.5757C18.4724 9.44236 18.3502 8.1953 18.5883 6.9922C18.8265 5.78909 19.4142 4.68397 20.2773 3.81658C21.1403 2.94919 22.2399 2.35849 23.437 2.11918C24.6341 1.87986 25.8749 2.00269 27.0026 2.47212C28.1302 2.94154 29.094 3.73649 29.7721 4.75644C30.4502 5.77638 30.8122 6.97551 30.8122 8.20218V14.4044H24.641ZM24.641 17.5474C26.2777 17.5474 27.8473 18.2009 29.0047 19.364C30.162 20.5271 30.8122 22.1047 30.8122 23.7496C30.8122 25.3945 30.162 26.9721 29.0047 28.1352C27.8473 29.2983 26.2777 29.9518 24.641 29.9518H9.1712C7.5345 29.9518 5.96483 29.2983 4.8075 28.1352C3.65018 26.9721 3 25.3945 3 23.7496C3 22.1047 3.65018 20.5271 4.8075 19.364C5.96483 18.2009 7.5345 17.5474 9.1712 17.5474H24.641Z" fill="#36C5F0"/>
<path fill-rule="evenodd" clip-rule="evenodd" d="M49.3629 23.7496C49.3629 22.523 49.7249 21.3238 50.403 20.3039C51.0811 19.2839 52.0449 18.489 53.1725 18.0196C54.3001 17.5501 55.541 17.4273 56.7381 17.6666C57.9352 17.9059 59.0348 18.4966 59.8978 19.364C60.7609 20.2314 61.3486 21.3365 61.5867 22.5397C61.8249 23.7428 61.7026 24.9898 61.2356 26.1231C60.7685 27.2564 59.9775 28.2251 58.9626 28.9066C57.9478 29.5881 56.7547 29.9518 55.5341 29.9518H49.3629V23.7496ZM46.282 23.7496C46.282 25.3946 45.6318 26.9721 44.4745 28.1352C43.3171 29.2984 41.7475 29.9518 40.1108 29.9518C38.4741 29.9518 36.9044 29.2984 35.7471 28.1352C34.5898 26.9721 33.9396 25.3946 33.9396 23.7496V8.20221C33.9396 6.55729 34.5898 4.97974 35.7471 3.81661C36.9044 2.65347 38.4741 2.00003 40.1108 2.00003C41.7475 2.00003 43.3171 2.65347 44.4745 3.81661C45.6318 4.97974 46.282 6.55729 46.282 8.20221V23.7496Z" fill="#2EB67D"/>
<path fill-rule="evenodd" clip-rule="evenodd" d="M40.1108 48.5957C41.3313 48.5957 42.5245 48.9594 43.5393 49.6409C44.5542 50.3224 45.3451 51.2911 45.8122 52.4244C46.2793 53.5577 46.4015 54.8048 46.1634 56.0079C45.9253 57.211 45.3375 58.3161 44.4745 59.1835C43.6114 60.0509 42.5118 60.6416 41.3147 60.8809C40.1176 61.1202 38.8768 60.9974 37.7492 60.5279C36.6215 60.0585 35.6577 59.2636 34.9796 58.2436C34.3015 57.2237 33.9396 56.0245 33.9396 54.7979V48.5957H40.1108ZM40.1108 45.4993C38.4741 45.4993 36.9044 44.8458 35.7471 43.6827C34.5898 42.5195 33.9396 40.942 33.9396 39.2971C33.9396 37.6521 34.5898 36.0746 35.7471 34.9115C36.9044 33.7483 38.4741 33.0949 40.1108 33.0949H55.5805C57.2172 33.0949 58.7869 33.7483 59.9442 34.9115C61.1016 36.0746 61.7517 37.6521 61.7517 39.2971C61.7517 40.942 61.1016 42.5195 59.9442 43.6827C58.7869 44.8458 57.2172 45.4993 55.5805 45.4993H40.1108Z" fill="#ECB22E"/>
</svg>
