<svg width="64" height="64" viewBox="0 0 64 64" fill="none" xmlns="http://www.w3.org/2000/svg">
<path fill-rule="evenodd" clip-rule="evenodd" d="M16.2992 7.73328H47.558L47.7153 9.15767C47.7433 9.4108 47.7695 9.67084 47.7937 9.93726H48.2433C50.303 9.93726 52.2799 10.7283 53.6184 12.1093C54.9936 13.5281 55.6676 15.5633 54.9916 17.7685C53.748 21.8254 50.857 26.1849 45.6017 28.3956C44.5971 30.8954 43.1926 33.2084 41.2479 34.9952C39.2534 36.8276 36.7467 38.0529 33.679 38.3894L33.679 45.4943H39.2977C42.6158 45.4943 45.3056 48.1842 45.3056 51.5023L45.3056 56.4082H18.9637V51.5023C18.9637 48.1841 21.6536 45.4943 24.9717 45.4943H30.479L30.479 38.394C27.3895 38.0644 24.8571 36.8374 22.8351 35.0015C20.8583 33.2067 19.4206 30.8787 18.3858 28.3612C13.1876 26.1431 10.2454 21.8153 8.95274 17.7794C8.24796 15.579 8.90494 13.5383 10.2752 12.1141C11.6072 10.7297 13.5838 9.93726 15.6437 9.93726H16.0641C16.088 9.6709 16.114 9.41086 16.142 9.15767L16.2992 7.73328ZM15.8969 13.1373H15.6437C14.369 13.1373 13.2535 13.634 12.5812 14.3328C11.9472 14.9917 11.6879 15.828 12.0002 16.8033C12.8223 19.37 14.4171 22.0011 16.9737 23.8927C16.117 20.2512 15.8398 16.4414 15.8969 13.1373ZM32.0582 35.2825C35.0754 35.2543 37.3407 34.2394 39.0828 32.6388C40.86 31.0059 42.1676 28.6911 43.081 25.986C44.7279 21.1086 44.9846 15.286 44.6649 10.9333H19.1944C18.8868 15.2756 19.1988 21.094 20.9006 25.9707C21.8447 28.6761 23.1829 30.9951 24.9862 32.6324C26.7554 34.2387 29.0404 35.2543 32.0582 35.2825ZM46.9604 23.983C49.5558 22.0932 51.1347 19.4321 51.9322 16.8306C52.2335 15.8477 51.9654 15.0017 51.3206 14.3364C50.6391 13.6333 49.5181 13.1373 48.2433 13.1373H47.9717C48.0459 16.4667 47.7974 20.313 46.9604 23.983ZM24.9717 48.6943C23.4209 48.6943 22.1637 49.9515 22.1637 51.5023V53.2082H42.1056V51.5023C42.1056 49.9515 40.8485 48.6943 39.2977 48.6943H24.9717Z" fill="#1E1919"/>
</svg>
